<svg width="32" height="32" viewBox="0 0 32 32" fill="none" xmlns="http://www.w3.org/2000/svg">
  <!-- 渐变定义 -->
  <defs>
    <linearGradient id="dropGradient" x1="0%" y1="0%" x2="100%" y2="100%">
      <stop offset="0%" style="stop-color:#4a9eff;stop-opacity:1" />
      <stop offset="100%" style="stop-color:#2a6885;stop-opacity:1" />
    </linearGradient>
    <linearGradient id="paperGradient" x1="0%" y1="0%" x2="100%" y2="100%">
      <stop offset="0%" style="stop-color:#ffffff;stop-opacity:1" />
      <stop offset="100%" style="stop-color:#f8f9fa;stop-opacity:1" />
    </linearGradient>
  </defs>
  
  <!-- 主要水滴形状 -->
  <path d="M16 4 C20 4 24 8 24 14 C24 20 20 24 16 24 C12 24 8 20 8 14 C8 8 12 4 16 4 Z" 
        fill="url(#dropGradient)" stroke="#1e4a5f" stroke-width="1"/>
  
  <!-- 内部纸张效果 -->
  <rect x="11" y="10" width="10" height="12" rx="1" fill="url(#paperGradient)" opacity="0.9"/>
  
  <!-- 文字线条 -->
  <line x1="13" y1="13" x2="19" y2="13" stroke="#2a6885" stroke-width="0.8" opacity="0.7"/>
  <line x1="13" y1="15" x2="17" y2="15" stroke="#2a6885" stroke-width="0.8" opacity="0.7"/>
  <line x1="13" y1="17" x2="18" y2="17" stroke="#2a6885" stroke-width="0.8" opacity="0.7"/>
  <line x1="13" y1="19" x2="16" y2="19" stroke="#2a6885" stroke-width="0.8" opacity="0.7"/>
  
  <!-- 高光效果 -->
  <ellipse cx="14" cy="8" rx="2" ry="1" fill="#ffffff" opacity="0.3"/>
</svg>