<svg width="32" height="32" viewBox="0 0 32 32" fill="none" xmlns="http://www.w3.org/2000/svg">
  <!-- 渐变定义 -->
  <defs>
    <linearGradient id="sealGradient" x1="0%" y1="0%" x2="100%" y2="100%">
      <stop offset="0%" style="stop-color:#dc2626;stop-opacity:1" />
      <stop offset="100%" style="stop-color:#991b1b;stop-opacity:1" />
    </linearGradient>
  </defs>
  
  <!-- 印章外框 -->
  <rect x="3" y="3" width="26" height="26" rx="3" fill="url(#sealGradient)" stroke="#7f1d1d" stroke-width="1"/>
  
  <!-- 内框装饰 -->
  <rect x="5" y="5" width="22" height="22" rx="2" fill="none" stroke="#ffffff" stroke-width="0.8" opacity="0.6"/>
  
  <!-- 中心文字区域 -->
  <rect x="8" y="8" width="16" height="16" rx="1" fill="#ffffff" opacity="0.95"/>
  
  <!-- 简化的"如是"字形设计 -->
  <!-- "如" 字简化 -->
  <path d="M11 11 L11 15 M11 13 L13 13" stroke="#dc2626" stroke-width="1.2" fill="none"/>
  <path d="M14 11 Q15 12 14 13 Q15 14 14 15" stroke="#dc2626" stroke-width="1" fill="none"/>
  
  <!-- "是" 字简化 -->
  <path d="M17 11 L21 11 M19 11 L19 15 M17 13 L21 13" stroke="#dc2626" stroke-width="1.2" fill="none"/>
  
  <!-- 底部装饰线 -->
  <path d="M10 18 L22 18" stroke="#dc2626" stroke-width="1" opacity="0.7"/>
  <path d="M11 20 L21 20" stroke="#dc2626" stroke-width="0.8" opacity="0.5"/>
  
  <!-- 四角装饰 -->
  <circle cx="7" cy="7" r="1" fill="#ffffff" opacity="0.8"/>
  <circle cx="25" cy="7" r="1" fill="#ffffff" opacity="0.8"/>
  <circle cx="7" cy="25" r="1" fill="#ffffff" opacity="0.8"/>
  <circle cx="25" cy="25" r="1" fill="#ffffff" opacity="0.8"/>
</svg>