<?xml version="1.0" standalone="no"?><!DOCTYPE svg PUBLIC "-//W3C//DTD SVG 1.1//EN" "http://www.w3.org/Graphics/SVG/1.1/DTD/svg11.dtd"><svg t="1754974396710" class="icon" viewBox="0 0 1043 1024" version="1.1" xmlns="http://www.w3.org/2000/svg" p-id="1641" xmlns:xlink="http://www.w3.org/1999/xlink" width="203.7109375" height="200"><path d="M497.087622 507.725532m-484.113373 0a484.113374 484.113374 0 1 0 968.226747 0 484.113374 484.113374 0 1 0-968.226747 0Z" fill="#70C4FF" p-id="1642"></path><path d="M490.675921 39.671334s-48.438267 273.565924 56.99575 293.514864 151.034037-8.548935 205.174444 45.595746 175.800302 35.388317 179.527638-19.94894c0 0-74.093621-276.416994-441.697832-319.16167zM191.018646 870.760338s111.820072 17.008106 214.526979-25.834882c108.772376-45.373473 207.311677-154.154398 151.918852-283.555356-87.117924-203.481754-171.35913-95.816465-141.796913-255.553318 29.557943-159.736853-63.317688-223.400773-128.09297-223.400773-64.78383 0-347.475743 422.377238-96.555948 788.344329z" fill="#A3D9FF" opacity=".26" p-id="1643"></path><path d="M167.534722 862.001954s97.013316 16.084821 186.127415-24.428583c94.375969-42.902831 179.87387-145.776442 131.807482-268.111703-75.593959-192.402334-148.678805-90.588791-123.032-241.622829s-54.939732-211.231364-111.136156-211.231364c-56.204974 0.004274-301.473923 399.36778-83.766741 745.394479z" fill="#A3D9FF" opacity=".26" p-id="1644"></path><path d="M186.05599 136.782962c153.752598 23.595061 98.359773 154.928077 141.707148 308.492599 28.130271 99.625016 70.605655 85.066179 108.644143 158.954626 58.102838 76.833555-222.272314 333.40847-372.601064 119.061019C-85.197448 355.374959 186.05599 136.782962 186.05599 136.782962z" fill="#9EE3C3" p-id="1645"></path><path d="M211.976361 823.972016c-64.403403 0-120.484417-31.421611-162.169025-90.862358l-1.119911-1.594376-0.730934-1.803825c-79.338393-195.898849-40.671559-350.202854 5.736336-445.151602 50.280562-102.869337 118.744709-158.762274 121.634249-161.091859l5.868844-4.727561 7.454671 1.145557c119.847522 18.388759 126.981608 98.530752 135.244154 191.325168 3.496514 39.308004 7.467495 83.860779 20.325094 129.422329 14.977734 53.037594 33.422062 69.994406 54.78585 89.622762 16.302819 14.982009 34.75997 31.938822 51.977526 64.937711 14.469073 20.342191 13.674022 49.096535-2.299664 81.206335-35.307102 70.968985-135.846854 147.571718-236.70719 147.571719z m-133.059901-108.926257c35.337023 49.588098 80.094973 74.726242 133.059901 74.726242 92.721751 0 179.266895-74.692046 206.089179-128.605906 10.07492-20.256702 11.788982-37.251985 4.701915-46.625892l-0.88909-1.175479-0.675366-1.312262c-14.614405-28.386739-29.540845-42.103506-45.339277-56.623871-23.07785-21.209908-46.946477-43.137927-64.557284-105.510958-13.725315-48.634892-17.845902-94.880357-21.474925-135.68015-7.890667-88.613987-12.737913-143.096351-98.667535-159.245289-16.922617 15.28977-68.596656 65.920839-107.391723 145.900402-62.150758 128.135714-63.783605 267.470534-4.855795 414.153163z" fill="#6E6E96" p-id="1646"></path><path d="M538.263568 25.377514s-75.841878 258.515524 90.819613 258.515524c169.354405 0 201.10515 153.308054 307.017907 19.602708C823.152557 31.417337 538.263568 25.377514 538.263568 25.377514z" fill="#9EE3C3" p-id="1647"></path><path d="M854.219388 375.332448h-0.021373c-27.301024-0.004274-51.413296-13.537239-79.338392-29.207437-37.696529-21.15434-80.424107-45.134103-145.776442-45.134103-41.778646 0-73.875623-14.57166-95.397567-43.313179-57.812174-77.213982-13.72959-230.620349-11.827452-237.113266l3.684591-12.558385 13.08842 0.27784c3.039146 0.064117 75.452902 1.996176 162.771725 38.3377 80.834456 33.644334 189.914594 104.382498 250.496623 250.32137l3.855569 9.288418-6.244997 7.882118c-33.541747 42.334327-62.932986 61.218925-95.290705 61.218924z m-302.969987-331.912406c-3.513612 14.640051-8.822501 39.961997-11.472671 68.447049-5.236223 56.418697 2.128685 99.761799 21.299672 125.340212 14.922166 19.91047 37.162221 29.587865 68.002504 29.587865 74.290246 0 123.207253 27.450631 162.515257 49.506883 24.719246 13.870647 44.245014 24.830382 62.608127 24.834657h0.012823c12.165135 0 31.549845-4.389878 62.086642-40.445012-95.786544-217.331029-309.556941-251.920021-365.052354-257.271654z" fill="#6E6E96" p-id="1648"></path><path d="M492.813155 19.341966c-267.367947 0-484.113374 216.745427-484.113374 484.117648 0 267.367947 216.745427 484.113374 484.113374 484.113373 267.367947 0 484.113374-216.745427 484.113373-484.113373 0-267.372221-216.745427-484.117648-484.113373-484.117648z m349.702741 539.125771c-17.089321 59.667293-120.2194 41.231514-161.185898 85.600488-33.336573 36.102153-1.085715 138.202085-45.835116 159.796695-51.50306 24.843206-109.259666 38.752323-170.269141 38.752323-67.570783 0 82.381813-123.254272 26.877852-153.325152-19.74804-10.703267-29.882803 48.25019-39.184044-82.689575-3.4153-48.083486-72.597557-70.379109-117.898365-180.468021-11.378633-27.651531-32.63556-222.34498-40.970771-211.222815-51.293611 68.391481-8.548935 282.738932 39.893606 394.674415 30.618011 70.755262-176.719313 193.723145-176.719313 83.796662 0-217.728555-98.270009-89.494528-84.407911-243.17446 19.4702-215.834965 175.689166-392.404672 392.408946-392.404672 91.426587 0 184.396257 26.29225 250.774463 78.906671 31.39169 24.864578 56.837595 55.63647 73.371236 92.268657 29.015086 64.300816-202.947446 22.975263-181.857223 33.533198 43.013967 21.526219 262.358271 101.527154 239.156461 95.21804-302.687872-82.249305-11.562435 69.943113 10.951186 92.48238 37.559747 37.555472-5.266144 73.871349-15.105968 108.255166z" fill="#6E6E96" opacity=".2" p-id="1649"></path><path d="M405.366097 996.092001c-1.124185 0-2.261193-0.111136-3.406751-0.341957C131.069239 940.998389-44.769534 676.062614 9.982121 405.172506 64.7466 134.282399 329.682374-41.54355 600.563933 13.199556c113.427271 22.928244 216.082885 84.869554 289.06087 174.419649 71.982034 88.323323 112.085089 199.356893 112.922884 312.643107a17.102145 17.102145 0 0 1-16.973911 17.226104h-0.128234a17.09787 17.09787 0 0 1-17.093596-16.969636c-0.782228-105.528055-38.158172-208.982994-105.233117-291.292141-67.989681-83.429058-163.639442-141.142919-269.334201-162.502434C341.377318-4.308663 94.522541 159.544502 43.502496 411.947538c-51.020045 252.40731 112.824572 499.266361 365.231882 550.286406a17.09787 17.09787 0 0 1-3.368281 33.858057z" fill="#6E6E96" p-id="1650"></path><path d="M581.88451 807.737588h-40.78697a17.09787 17.09787 0 0 1 0-34.195741h40.78697a17.09787 17.09787 0 0 1 0 34.195741z" fill="#6E6E96" p-id="1651"></path><path d="M513.257933 941.583991V607.65831c0-24.04388 11.968509-27.206986 26.604286-27.206986h431.682755c14.631502 0 26.612835 3.171655 26.612835 27.206986v333.925681" fill="#B9BCC9" p-id="1652"></path><path d="M971.549248 587.841878H539.866494c-14.635777 0-26.608561 3.163106-26.608561 27.206986v21.714295c0-24.048155 11.972784-27.211261 26.608561-27.21126h431.682754c14.627228 0 26.61711 3.175929 26.61711 27.21126v-21.714295c0-24.031057-11.989882-27.206986-26.61711-27.206986z" fill="#FFFFFF" opacity=".15" p-id="1653"></path><path d="M1011.938692 938.724372h-34.19574v-331.070337c0-7.22385-1.423398-9.301241-1.440496-9.318339-0.089764 0-1.735434-0.795051-8.078744-0.795051h-425.023134c-6.287742 0-7.954784 0.777953-8.258271 0.953206 0.064117 0.012823-1.260968 2.197076-1.260968 9.160184v331.070337h-34.19574v-331.070337c0-20.213957 7.582905-44.304856 43.710705-44.304856h425.023134c36.1278 0 43.71498 24.095174 43.71498 44.304856v331.070337z" fill="#6E6E96" p-id="1654"></path><path d="M1008.715744 931.748441h-189.435854v18.239153h-133.722444v-18.239153h-181.340012a15.2513 15.2513 0 0 0-15.195732 15.195732v39.504629h534.894048v-39.500354a15.242751 15.242751 0 0 0-15.200006-15.200007z" fill="#B9BCC9" p-id="1655"></path><path d="M1008.715744 925.229878h-189.435854v18.239153h-133.722444v-18.239153h-181.340012a15.242751 15.242751 0 0 0-15.195732 15.195732v23.889999c0-8.360859 6.839148-15.204281 15.195732-15.204281h181.340012v18.251977h133.722444v-18.251977h189.435854a15.2513 15.2513 0 0 1 15.195732 15.204281v-23.889999a15.229928 15.229928 0 0 0-15.195732-15.195732z" fill="#FFFFFF" opacity=".15" p-id="1656"></path><path d="M567.774492 628.41085h376.217264v254.087176h-376.217264z" fill="#8CBDF2" p-id="1657"></path><path d="M688.908629 870.572261l248.2739-232.607976v68.263247l-164.66104 164.344729z" fill="#DEEFFF" opacity=".31" p-id="1658"></path><path d="M937.182529 706.227532l-164.66104 164.344729h164.66104z" fill="#FFFFFF" opacity=".31" p-id="1659"></path><path d="M943.991756 899.595896h-376.217264a17.09787 17.09787 0 0 1-17.09787-17.09787v-254.087176a17.09787 17.09787 0 0 1 17.09787-17.09787h376.217264a17.09787 17.09787 0 0 1 17.09787 17.09787v254.087176a17.09787 17.09787 0 0 1-17.09787 17.09787z m-359.119393-34.195741h342.021522v-219.891435h-342.021522v219.891435z" fill="#6E6E96" p-id="1660"></path><path d="M567.774492 628.41085h369.416586v26.651305h-369.416586zM489.025976 967.48299h534.898323v18.970087H489.025976z" fill="#6E6E96" opacity=".15" p-id="1661"></path><path d="M1023.91575 1003.546673H489.021702a17.09787 17.09787 0 0 1-17.09787-17.097871v-39.504629c0-17.807432 14.486171-32.293602 32.293602-32.293602h181.340012a17.09787 17.09787 0 0 1 17.097871 17.09787v1.141283h99.526703v-1.141283a17.09787 17.09787 0 0 1 17.09787-17.09787h189.435854c17.807432 0 32.297877 14.490445 32.297877 32.297877v39.500354a17.09787 17.09787 0 0 1-17.097871 17.097871z m-517.796178-34.195741h500.698308v-20.504621h-170.44012v1.141283a17.09787 17.09787 0 0 1-17.09787 17.09787h-133.722444a17.09787 17.09787 0 0 1-17.09787-17.09787v-1.141283h-162.340004v20.504621z" fill="#6E6E96" p-id="1662"></path></svg>